<?xml version="1.0" encoding="iso-8859-1"?>
<svg version="1.1" id="coechef" xmlns="http://www.w3.org/2000/svg" xmlns:xlink="http://www.w3.org/1999/xlink" width="400" height="400" viewBox="0 0 70 90" fill="none">
  <path d="M57.4 61.65c2.2.72 4.01 1.74 5.42 3.06.31.22.46.47.46.76 0 .47-.35.92-1.06 1.36-.83.52-2.07 1.44-3.71 2.76-1.52 1.21-2.75 2.09-3.68 2.65-.18.09-.36.14-.54.14a1 1 0 0 1-.7-.28q-.3-.285-.3-.66c0-.22.08-.41.24-.6.22-.36.72-.76 1.52-1.19.52-.27 1.17-.71 1.95-1.33.94-.76 1.59-1.26 1.95-1.49.79-.4 1.19-.68 1.19-.84 0-.04-.01-.07-.03-.11-.43-.76-1.15-1.33-2.14-1.71-.88-.25-1.78-.51-2.68-.79-1.06-.32-1.85-.78-2.36-1.38-.04-.05-.05-.12-.05-.19 0-.22.13-.46.38-.72s.5-.39.73-.39c.14-.04.29-.05.43-.05.42 0 .93.13 1.54.38.47.2.95.4 1.44.62m-42.25-.89q.615 0 1.02.33c.26.22.39.47.39.76q0 .33-.24.57c-.6.65-1.82 1.35-3.68 2.09-1.72.69-2.87 1.48-3.47 2.38 1.01.61 2.34 1.28 3.98 2 2.62 1.17 3.97 1.78 4.06 1.82.34.16.51.42.51.79.04.45-.14.83-.53 1.15s-.84.47-1.34.47c-.2 0-.39-.04-.57-.11-.22-.22-.51-.47-.89-.76a92 92 0 0 0-7.64-3.71q-.405-.165-.81-.3c-.34-.16-.54-.4-.6-.7 0-.78.34-1.5 1.03-2.17.83-.67 2.2-1.43 4.12-2.3 1.86-.83 3.2-1.6 4.04-2.3 0-.01.2-.01.62-.01m16.99-.04c-.45-.65-.87-1.11-1.25-1.38s-.82-.4-1.33-.4c-.18 0-.34.03-.47.08l-3 1.04c-.17.06-.37.08-.59.08-.4 0-.72-.09-.96-.28-.25-.18-.55-.55-.9-1.1l-.83.55c.52.75.97 1.25 1.33 1.49.37.25.83.37 1.4.37.25 0 .5-.04.74-.11l2.75-1c.18-.07.38-.11.59-.11.35 0 .64.07.85.22.21.14.51.47.89.99z" fill="#5B4538"/>
  <path fill-rule="evenodd" clip-rule="evenodd" d="M52.41 77.29c1.51 9.02-9.52 9.89-14.05 5.84-3.13-2.8-2.25-6.69 2.24-6.45 3.95.21 6.28 5.31 11.81.61m-33.5 0c-1.51 9.02 9.52 9.89 14.05 5.84 3.13-2.8 2.25-6.69-2.24-6.45-3.95.21-6.28 5.31-11.81.61" fill="#5B4538"/>
  <path d="M29.74 64.2c-.5-.35-1.12-.53-1.86-.53-.89 0-1.61.27-2.17.8-.65.59-.9 1.43-.75 2.53.09.89.41 1.67.95 2.35.55.68 1.21 1.02 1.97 1.02.47 0 .96-.13 1.46-.4.89-.53 1.33-1.55 1.33-3.06 0-1.36-.31-2.26-.93-2.71m-1.9 3.59a.95.95 0 1 1 0-1.9.95.95 0 0 1 0 1.9m8.5 8.12c.28 0 .55-.05.8-.15s.48-.22.69-.38.4-.34.57-.53c.17-.2.32-.39.44-.6.13-.2.23-.39.31-.58.08-.18.14-.33.17-.46-.01-.02-.02-.05-.04-.09a.4.4 0 0 1-.05-.09c-.02-.02-.04-.03-.05-.03-.24.44-.5.8-.8 1.08s-.63.48-.98.61c-.36.13-.75.19-1.16.19-.36 0-.68-.05-.96-.14-.29-.09-.54-.23-.77-.4-.23-.18-.43-.39-.62-.63-.18-.24-.35-.52-.5-.82-.01 0-.02.01-.04.03s-.04.05-.05.08c-.02.03-.02.05-.03.07.14.39.31.75.52 1.1q.3.51.69.9c.26.26.54.47.86.62.3.13.64.21 1 .22m8.79-11.77c-.5-.35-1.12-.53-1.86-.53-.89 0-1.61.27-2.17.8-.65.59-.9 1.44-.75 2.53.09.89.41 1.67.95 2.35.55.68 1.21 1.02 1.97 1.02.47 0 .96-.13 1.46-.4.89-.53 1.33-1.55 1.33-3.06.01-1.37-.3-2.27-.93-2.71m-2.18 3.76a.95.95 0 1 1 0-1.9.95.95 0 0 1 0 1.9" fill="#5B4538"/>
  <path d="M51.65 53.38c1.54-.67 2.33-5.87 3.37-10.71 3.75-8.57 12.12-14.88 11.62-22.85-6.87-13.45-16.49-13.93-20.61-15-5.34-.99-10.67-1.72-16-.95-3.79.56-8.7 4.21-13.24 4.52-4.33 1.43-5.41 3.33-6.62 5-1.35 2.94-1.66 5.87-1 8.81 1.66 5.28 4.21 10.08 5 15.83 1.75 3.09 1.87 8.93 5.87 12.85 12.24-5.83 22.24-1.31 31.61 2.5" fill="url(#a)"/>
  <path d="m51.5 53.44-1.15-.47c-9.19-3.75-18.7-7.64-30.42-2.05l-.07.03-.05-.05c-2.61-2.56-3.57-5.87-4.41-8.8-.45-1.54-.87-2.99-1.48-4.08l-.01-.04c-.53-3.82-1.85-7.29-3.13-10.64-.64-1.68-1.31-3.42-1.86-5.18-.67-2.98-.33-5.97 1-8.88.1-.14.19-.27.28-.4 1.11-1.56 2.36-3.33 6.4-4.66 2.5-.18 5.08-1.35 7.57-2.48 2.04-.93 3.97-1.8 5.69-2.05 5.07-.73 10.07-.15 16.02.95.48.12 1.01.24 1.62.37 4.53.96 12.96 2.73 19.06 14.69l.01.04c.31 4.96-2.78 9.28-6.06 13.85-2.03 2.84-4.14 5.78-5.57 9.05-.16.76-.32 1.55-.48 2.33-.86 4.21-1.6 7.85-2.95 8.44zm-19.64-5.53c6.66 0 12.68 2.46 18.58 4.87l1.06.43c1.22-.6 1.98-4.33 2.79-8.27.16-.78.32-1.57.49-2.35 1.45-3.31 3.56-6.26 5.6-9.11 3.25-4.54 6.32-8.82 6.02-13.7C60.33 7.94 52.29 6.25 47.48 5.23c-.62-.13-1.15-.24-1.63-.37-5.92-1.09-10.91-1.67-15.95-.94-1.69.25-3.6 1.12-5.63 2.03-2.51 1.14-5.1 2.31-7.62 2.49-3.95 1.31-5.18 3.04-6.27 4.58-.09.13-.18.25-.27.38-1.31 2.85-1.64 5.8-.98 8.72.55 1.75 1.21 3.48 1.86 5.16 1.28 3.35 2.61 6.82 3.14 10.66.62 1.1 1.04 2.56 1.49 4.1.83 2.88 1.78 6.14 4.31 8.66 4.23-2.01 8.18-2.79 11.93-2.79" fill="#C8BCA8"/>
  <path fill-rule="evenodd" clip-rule="evenodd" d="M20.39 54.28c4.41-2.34 15.45-8.13 30.23 2.02.42-2.38.46-4.76.13-7.14-.42-5.63-22.48-12.52-30.48-.12z" fill="url(#b)"/>
  <path d="m50.66 56.38-.06-.04c-6.33-4.35-12.71-6.26-18.98-5.69-5.18.47-9.1 2.55-11.21 3.67l-.06.03v-.07l-.12-5.25.01-.01c2.16-3.34 5.43-5.52 9.74-6.46 3.53-.78 7.65-.65 11.6.36 5.26 1.34 9.05 3.91 9.22 6.24.33 2.37.29 4.78-.13 7.15zm-16.87-5.92c5.56 0 11.2 1.93 16.8 5.77.4-2.34.44-4.72.11-7.06-.17-2.26-4.02-4.86-9.16-6.17-3.93-1-8.04-1.13-11.56-.36-4.28.94-7.54 3.1-9.68 6.41l.12 5.15c2.13-1.13 6.03-3.18 11.18-3.65q1.11-.09 2.19-.09" fill="#C8BCA8"/>
  <path fill-rule="evenodd" clip-rule="evenodd" d="M14.18 12.5c-.68 3.43 2.36 14.26 1.34 19.94-.52-2.98-2.42-8.89-2.34-12.22-.92-2-1.84-4.42-2.85-5.35-.91-.83 2.09-5.78 3.85-2.37" fill="url(#c)"/>
  <path d="M21.11 47.36c-.01-.01-.01-.01-.01-.02-4-4.68-5.65-12.74-7.04-19.53-1.1-5.39-2.04-9.99-3.86-11.44l-.01-.01c-.23-.3-.36-.65-.41-1.02-.09-.64.07-1.34.4-1.99.32-.65.81-1.23 1.39-1.63.4-.28.85-.46 1.31-.52l.01.09c-.45.05-.88.24-1.27.5-.43.59-.75.97-1.07 1.6-.89 1.78.96 1.69 1.69 2.66 1.84 1.48 1.99 6.33 3.1 11.74 1.39 6.78 1.84 14.83 5.82 19.49.01.01.01.01.01.02z" fill="#A99675"/>
  <path fill-rule="evenodd" clip-rule="evenodd" d="M20.96 11.1c-.68 3.43 1.06 11.3.05 16.99-.52-2.98-2.42-8.89-2.34-12.22-.92-2-2.02-4.28-2.67-5.46-.59-1.06 2.45-2.49 4.96.69" fill="url(#d)"/>
  <path d="M19.63 9.9c-.87-.59-1.22-.56-1.97-.46-.31.04-.57.14-.77.28s-.33.34-.37.58c-.04.36-.28.42.05 1.08 2.22 3.01 3.91 8 4.38 13.31.59 6.73-.19 14.19 4.27 19.47l-.07.06c-4.48-5.31-5.14-12.78-5.73-19.52-.47-5.3-.9-10.15-3.1-13.14-.46-.62-.6-1.13-.53-1.53.05-.27.19-.48.41-.64.21-.16.49-.26.82-.3.77-.1 1.78.13 2.67.74z" fill="#A99675"/>
  <path d="M31.87 5.08c2.06 3.44-1.73 18.92-2.4 28.65-.06.82-7.32-32.11 2.4-28.65" fill="url(#e)"/>
  <path d="M31 42.32c-2.35-6.12-4.87-16.74-5.26-25.12-.15-3.3.02-6.26.67-8.46.65-2.21 1.78-3.65 3.53-3.91.57-.09 1.21-.04 1.92.14l-.03.09c-.7-.18-1.35-.03-1.91.06-1.46.33-1.29 1.25-2.25 3.32-.64 2.19-1 4.9-.71 8.2 1.25 8.17 2.78 19.31 4.11 25.65z" fill="#B5A584"/>
  <path d="M37.84 41.79c-.09-.66-.18-1.34-.28-2.03-1.53-11.02-3.4-24.5 3.16-34.19l.08.05c-2.69 7.17-3.05 20.82-3.37 25.23-.14 1.9.08 5.98.23 8.89.09.68.19 1.36.28 2.03z" fill="#CABB9C"/>
  <path d="M44.96 43.21c.23-5.71.84-12.39 1.39-18.18 1.38-7.3 5.09-10.75 6.06-18.13l.02-.09c-3.54 5.77-5.51 12.01-6.54 18.24-1.02 6.23-1.1 12.45-.83 18.16z" fill="url(#f)"/>
  <path d="M62.12 15.57c-2.95 9.16-6.49 18.11-10.06 27.17.1-11.99 6.53-26.43 10.06-27.17" fill="url(#g)"/>
  <path d="M50.37 46.78c1.56-1.63 1.67-4.13 1.81-7.03.12-2.68.26-5.7 1.57-8.69.03-.11.09-.3.16-.56.87-3.03 4.35-15.21 8.41-14.99l-.01.09c-3.19-.12-7.24 11.93-8.2 14.94-.07.25-.09.41-.13.53v.01c-1.14 2.97-1.21 6-1.59 8.67-.13 2.91-.38 5.43-1.96 7.08z" fill="#A99675"/>
  <defs>
    <linearGradient id="a" x1="8.836" y1="28.463" x2="66.659" y2="28.463" gradientUnits="userSpaceOnUse">
      <stop offset=".04" stop-color="#F9F9EC"/>
      <stop offset=".418" stop-color="#F9F9EC"/>
      <stop offset=".493" stop-color="#F3F1E2"/>
      <stop offset=".622" stop-color="#E4DDC6"/>
      <stop offset=".787" stop-color="#CCBC9A"/>
      <stop offset=".797" stop-color="#CABA97"/>
      <stop offset="1" stop-color="#BAA685"/>
    </linearGradient>
    <linearGradient id="b" x1="20.269" y1="49.202" x2="50.974" y2="49.202" gradientUnits="userSpaceOnUse">
      <stop stop-color="#F9F9EC"/>
      <stop offset=".053" stop-color="#F9F9EC"/>
      <stop offset=".384" stop-color="#F9F9EC"/>
      <stop offset=".514" stop-color="#F5F4E5"/>
      <stop offset=".709" stop-color="#EAE5D0"/>
      <stop offset=".944" stop-color="#D9CCAF"/>
      <stop offset=".999" stop-color="#D4C6A6"/>
    </linearGradient>
    <linearGradient id="c" x1="10.162" y1="21.884" x2="15.732" y2="21.884" gradientUnits="userSpaceOnUse">
      <stop stop-color="#E8DBCA"/>
      <stop offset="1" stop-color="#F2ECDE"/>
    </linearGradient>
    <linearGradient id="d" x1="18.402" y1="15.833" x2="21.46" y2="20.296" gradientUnits="userSpaceOnUse">
      <stop stop-color="#ECE1D1"/>
      <stop offset=".432" stop-color="#EEE6D9"/>
      <stop offset="1" stop-color="#EFE9DE"/>
    </linearGradient>
    <linearGradient id="e" x1="26.808" y1="19.287" x2="32.472" y2="19.287" gradientUnits="userSpaceOnUse">
      <stop stop-color="#ECE1D1"/>
      <stop offset="1" stop-color="#EDE4D5"/>
    </linearGradient>
    <linearGradient id="f" x1="48.724" y1="18.907" x2="48.578" y2="26.396" gradientUnits="userSpaceOnUse">
      <stop stop-color="#BAA68A"/>
      <stop offset="1" stop-color="#C7BAA0"/>
    </linearGradient>
    <linearGradient id="g" x1="52.062" y1="29.155" x2="62.119" y2="29.155" gradientUnits="userSpaceOnUse">
      <stop stop-color="#BDAE99"/>
      <stop offset=".255" stop-color="#BFB19C"/>
      <stop offset="1" stop-color="#C2B5A1"/>
    </linearGradient>
  </defs>
</svg>
